<svg width="48" height="48" viewBox="0 0 48 48" fill="none" xmlns="http://www.w3.org/2000/svg">
<rect width="48" height="48" rx="8" fill="url(#paint0_linear_12_773)"/>
<path fill-rule="evenodd" clip-rule="evenodd" d="M23 14.25C22.2707 14.25 21.5712 14.5397 21.0555 15.0555C20.5397 15.5712 20.25 16.2707 20.25 17V19C20.25 19.414 20.586 19.75 21 19.75H27C27.1989 19.75 27.3897 19.671 27.5303 19.5303C27.671 19.3897 27.75 19.1989 27.75 19V17C27.75 16.2707 27.4603 15.5712 26.9445 15.0555C26.4288 14.5397 25.7293 14.25 25 14.25H23ZM21.75 17C21.75 16.31 22.31 15.75 23 15.75H25C25.69 15.75 26.25 16.31 26.25 17V18.25H21.75V17Z" fill="white"/>
<path fill-rule="evenodd" clip-rule="evenodd" d="M18.487 16.929C18.613 16.868 18.753 16.965 18.753 17.105L18.75 19C18.75 19.5967 18.9871 20.169 19.409 20.591C19.831 21.0129 20.4033 21.25 21 21.25H27C27.5967 21.25 28.169 21.0129 28.591 20.591C29.0129 20.169 29.25 19.5967 29.25 19V17.104C29.25 16.964 29.39 16.868 29.517 16.929C30.1113 17.2148 30.6127 17.6627 30.9636 18.2211C31.3144 18.7794 31.5003 19.4255 31.5 20.085V30.575C31.5002 31.4018 31.1982 32.2002 30.6509 32.82C30.1035 33.4397 29.3485 33.838 28.528 33.94C25.521 34.314 22.479 34.314 19.472 33.94C18.6515 33.838 17.8965 33.4397 17.3491 32.82C16.8018 32.2002 16.4998 31.4018 16.5 30.575V20.085C16.5 19.4251 16.6866 18.7787 17.0381 18.2203C17.3897 17.6619 17.892 17.2142 18.487 16.929ZM28.125 25.2129C28.125 25.0901 28.073 24.9724 27.9804 24.8855C27.8878 24.7987 27.7621 24.75 27.6311 24.75C27.5002 24.75 27.3745 24.7987 27.2819 24.8855L23.0178 28.8823L20.7309 26.7387C20.6857 26.6932 20.6311 26.6567 20.5705 26.6314C20.5098 26.606 20.4444 26.5924 20.378 26.5913C20.3116 26.5902 20.2457 26.6017 20.1842 26.625C20.1226 26.6483 20.0667 26.683 20.0198 26.7269C19.9728 26.7709 19.9358 26.8233 19.911 26.881C19.8861 26.9387 19.8739 27.0005 19.8751 27.0627C19.8762 27.1249 19.8908 27.1863 19.9178 27.2431C19.9448 27.3 19.9838 27.3511 20.0323 27.3935L22.6685 29.8645C22.7612 29.9513 22.8868 30 23.0178 30C23.1488 30 23.2744 29.9513 23.3671 29.8645L27.9804 25.5403C28.073 25.4534 28.125 25.3357 28.125 25.2129Z" fill="white"/>
<defs>
<linearGradient id="paint0_linear_12_773" x1="24" y1="0" x2="24" y2="48" gradientUnits="userSpaceOnUse">
<stop stop-color="#FF7B00"/>
<stop offset="1" stop-color="#FF9E44"/>
</linearGradient>
</defs>
</svg>
