<svg width="48" height="48" viewBox="0 0 48 48" fill="none" xmlns="http://www.w3.org/2000/svg">
<rect width="48" height="48" rx="8" fill="white"/>
<path fill-rule="evenodd" clip-rule="evenodd" d="M25.3338 12C25.3338 11.6464 25.1933 11.3072 24.9433 11.0572C24.6932 10.8071 24.3541 10.6667 24.0005 10.6667C23.6468 10.6667 23.3077 10.8071 23.0577 11.0572C22.8076 11.3072 22.6671 11.6464 22.6671 12V13H21.9245C20.4952 12.9999 19.1196 13.5445 18.0777 14.523C17.0358 15.5014 16.406 16.8402 16.3165 18.2667L16.0218 22.9787C15.9079 24.7749 15.3048 26.5058 14.2778 27.984C14.0653 28.2894 13.9355 28.6446 13.9009 29.0151C13.8664 29.3855 13.9283 29.7586 14.0806 30.0981C14.233 30.4375 14.4705 30.7318 14.7703 30.9522C15.07 31.1726 15.4217 31.3117 15.7911 31.356L20.3338 31.9V33.3333C20.3338 34.3058 20.7201 35.2384 21.4077 35.926C22.0954 36.6137 23.028 37 24.0005 37C24.9729 37 25.9056 36.6137 26.5932 35.926C27.2808 35.2384 27.6671 34.3058 27.6671 33.3333V31.9L32.2098 31.3547C32.579 31.3103 32.9305 31.1711 33.23 30.9508C33.5296 30.7305 33.767 30.4364 33.9193 30.0971C34.0716 29.7579 34.1336 29.385 34.0992 29.0147C34.0649 28.6445 33.9353 28.2894 33.7231 27.984C32.6961 26.5058 32.093 24.7749 31.9791 22.9787L31.6845 18.268C31.5952 16.8413 30.9656 15.5022 29.9237 14.5235C28.8818 13.5447 27.506 12.9999 26.0765 13H25.3338V12ZM22.3338 33.3333C22.3338 33.7754 22.5094 34.1993 22.822 34.5118C23.1345 34.8244 23.5584 35 24.0005 35C24.4425 35 24.8664 34.8244 25.179 34.5118C25.4915 34.1993 25.6671 33.7754 25.6671 33.3333V32.3333H22.3338V33.3333Z" fill="#002443"/>
</svg>
